<?xml version="1.0" encoding="utf-8"?>
<!-- Generator: Adobe Illustrator 28.0.0, SVG Export Plug-In . SVG Version: 6.00 Build 0)  -->
<svg version="1.1" id="Layer_1" xmlns:xodm="http://www.corel.com/coreldraw/odm/2003"
	 xmlns="http://www.w3.org/2000/svg" xmlns:xlink="http://www.w3.org/1999/xlink" x="0px" y="0px" viewBox="0 0 391.44 120.59"
	 style="enable-background:new 0 0 391.44 120.59;" xml:space="preserve">
<style type="text/css">
	.st0{opacity:0.25;}
	.st1{fill:#454343;}
</style>
<g id="Layer_x0020_1">
	<g id="_1003537392">
		<path class="st0" d="M349.55,81.32h-3.78V71.31h-1.6v-4.18h-1.91v-6.41l-4.02-5.4l-4.02,5.4v6.41h-1.91v4.18h-1.6v10.01h-4.31
			V57.64h-16.78V23.58h-7.48v3.56h-4.49v4.95h-4.49v4.95h-4.49v34.26h-2.84l-3.87-36.36c-0.12-3.22-3.01-3.22-3.13,0l-3.87,36.36
			h-4.05V38.44h-7.28v-4.78h-17.31v18.56h-5.13v-40h-1.8V5.87h-2.43V0h-7.78v5.87h-2.43v6.35h-1.8v70.55h-3.78v-49.1h-3.12v-5.15
			h-1.87v-3.45h0.59v-2.41h-7.64v2.41h0.59v3.45h-1.87v5.15h-3.12v30.01h-4.59V35.5h-3.25v-4.49h-14.55v4.49h-3.25v35.81h-3.63
			v11.46h-2.75V47.73h-18.27v35.04h-5.38v-1.98h-0.7V79.6h0.7v-2.17h-0.7v-1.18h0.7v-2.17h-0.7v-1.18h0.7v-2.17h-0.7v-1.18h0.7
			v-2.17h-0.7v-1.18h0.7v-2.17h-0.7v-1.18h0.7V60.7h-0.7v-1.18h0.7v-2.17h-0.7v-1.18h0.7V54h-0.7v-1.18h0.7v-2.17h-0.7v-1.18h0.7
			v-2.17h-0.7v-1.18h0.7v-2.17h-0.7v-2.43h-10.56v2.43h-0.7v2.17h0.7v1.18h-0.7v2.17h0.7v1.18h-0.7v2.17h0.7V54h-0.7v2.17h0.7v1.18
			h-0.7v2.17h0.7v1.18h-0.7v2.17h0.7v1.18h-0.7v2.17h0.7v1.18h-0.7v2.17h0.7v1.18h-0.7v2.17h0.7v1.18h-0.7v2.17h0.7v1.18h-0.7v2.17
			h0.7v1.18h-0.7v2.17h0.7v1.18h-0.7v2.17h0.7v1.18h-0.7v2.17h0.7v1.18h-0.7v2.17h0.7v1.18h-0.7v2.17h0.7v1.18h-0.7v0.93h-5.3V66.61
			h-7.34V62.4h-12.07v23.09h-1.99v-26h-2.45v-3.96H93.27v3.96h-2.45v34.37h-6.16V70.6h-4.37v-3.99H60.94v38.91
			c0,3.38-1.11,7.33-5.12,7.71c0.03-0.41-0.05-0.81-0.35-1.03c0.11-0.49,0.28-0.98-0.22-1.59c0.11-0.58,0.12-1.27-0.35-1.54
			c0.08-0.48,0.25-1.19-0.36-1.52c0.13-0.48,0.06-1.3-0.43-1.56c0.07-0.47,0.11-1.14-0.46-1.44c0.09-0.53-0.14-1.23-0.59-1.48
			c-0.02-0.26,0.01-0.52-0.12-0.8c2.46,0.87,2.43,3.37,2.4,4.83c0.67-1.06,1.12-1.78,0.97-3.12c1.12,1.46,1.88,3.04,2.75,4.67
			c0.45-1.71-0.19-4.77-1.25-6.51c0.85,0.04,1.7,0.56,2.55,1.77c-0.03-1.22-0.65-2.43-1.69-3.43l1.18,0.39
			c-0.73-1.91-2.66-3.75-5.72-4.02c0.46-0.34,1.04-0.59,2.07-0.5c-0.16-0.21-0.4-0.31-0.67-0.36c0.67-0.14,1.48-0.06,2.33,0.11
			c-0.34-0.74-2.13-1.24-3.44-1.23c2.19-3,0.1-7.96-3.58-8.42c0.62-0.36,1.61-0.6,3.26-0.63c-0.15-0.21-0.61-0.43-0.74-0.44
			c0.73-0.09,1.73,0.16,2.67,0.35c-2.65-2.02-5.72-2.81-8.65-0.49c-2.33-3.32-5.99-2.94-9.22-1.31c0.99-0.13,1.92-0.18,2.6,0.21
			l-0.59,0.19c0.71,0.04,2.21,0.25,2.58,0.75c-3.78,0.03-5.14,2-7.05,4.49l1.9-1.01c-1.96,1.3-2.71,3.04-2.89,4.94
			c1.02-1.38,2.12-2.41,3.42-2.36c-1.93,2.59-2.61,5.6-1.82,7.95c0.7-2.21,1.47-4.73,3.4-5.71c-0.29,1.79,0.06,2.57,0.96,4.05
			c0.11-2.67,1.32-5.06,3.52-6.29c-0.46,0.4-0.67,1.04-0.67,1.65c-0.71,0.24-0.61,1.43-0.61,1.81c-0.66,0.26-0.72,1.15-0.62,1.85
			c-0.62,0.33-0.67,1.28-0.5,1.9c-0.67,0.28-0.59,1.2-0.45,1.9c-0.59,0.31-0.53,1.19-0.38,1.89c-0.76,0.22-0.31,1.75-0.27,1.96
			c-0.57,0.35-0.49,1.2-0.31,1.88c-0.39,0.08-0.39,1.4-0.22,1.95c-0.38,0.63-0.4,1.23-0.16,1.94c-0.37,0.63-0.38,1.24-0.12,1.93
			c-0.38,0.67-0.35,1.29-0.05,2c-0.3,0.24-0.36,0.62-0.32,1c-8.24,0.91-20.69,2.58-39.5,5.61h391.44c-2.7-0.96-8.4-1.9-12.5-2.56
			c0.09-0.39,0.08-0.79-0.2-1.05c0.22-0.55,0.25-1.07-0.06-1.59c0.2-0.55,0.2-1.05-0.1-1.56c0.18-0.56,0.18-1.06-0.14-1.56
			c0.17-0.57,0.15-1.08-0.18-1.58c0.14-0.57,0.18-1.24-0.26-1.55c0.11-0.49,0.28-0.98-0.22-1.58c0.11-0.58,0.12-1.27-0.35-1.54
			c0.08-0.48,0.25-1.19-0.36-1.52c0.13-0.48,0.06-1.3-0.43-1.56c0.07-0.48,0.11-1.14-0.46-1.44c0.09-0.52-0.14-1.23-0.59-1.48
			c-0.02-0.26,0.01-0.52-0.12-0.81c1.73,1.22,2.13,3.07,2.4,4.83c0.67-1.06,1.13-1.76,0.98-3.1c1.22,1.06,2.01,2.59,2.75,4.67
			c0.01-2.36,0.1-4.51-1.26-6.53l2.55,1.77c0.06-0.96-0.23-2.17-1.39-3.49l0.88,0.45c-1.62-2.06-2.66-3.75-5.73-4.02l2.06-0.5
			l-0.34-0.11l2-0.15c-2.2-1.08-3.38-1.78-5.97-0.7c-0.8,0.34-1.56,0.84-2.09,1.54c-1.98-1.41-4.68-1.41-6.46-0.09
			c-0.5-1.28-1.53-2.37-2.86-2.72l3.99-0.46l-1.33-1.01c-1.47-1.12-4.33-0.79-5.93,0.36c-1.21-1.62-4.16-2.69-6.04-1.75l-1.83,0.92
			l1.94,0.15l-0.32,0.1l2.01,0.5c-3.01,0.28-4.02,1.99-5.6,4.03l0.84-0.44c-0.62,0.56-1,1.12-1.2,1.65L349.55,81.32L349.55,81.32z
			 M48.64,113.93c-1.44,0.1-3.17,0.24-5.26,0.44c0-0.33-0.14-0.6-0.44-0.71c0.32-0.58,0.81-1.54,0.03-1.86
			c0.3-0.51,0.8-1.57,0.06-1.88c0.32-0.54,0.81-1.41,0.07-1.82c0.3-0.51,0.81-1.3,0.17-1.81c0.34-0.58,0.64-1.34,0.18-1.79
			c0.04-0.06,0.08-0.13,0.11-0.19c0.17,0.69,0.63,1.18,1.14,1.62c-0.22-1.7-0.06-3.9,1.62-4.58c-0.92,2.57-0.74,5.45,0.8,7.24
			c-0.12-1.34-0.06-2.59,0.53-3.53c0.41,2.35,1.67,4.74,3.23,5.02c-1.26-2.61-1.29-4.42-0.25-7.19c0.14,0.41,0.28,0.82,0.52,1.19
			c0.08,0.5,0.14,0.97,0.42,1.4l0.39,1.42c-0.14,0.46,0.11,0.95,0.34,1.4l0.25,1.45c-0.19,0.45-0.04,1,0.23,1.43
			c-0.26,0.42-0.09,0.98,0.18,1.43c-0.21,0.26-0.2,0.59-0.09,0.92C51.45,113.66,50.04,113.79,48.64,113.93L48.64,113.93z
			 M53.44,94.97c-0.53,0.09-1.07,0.25-1.55,0.45c0.32-1.8,0.15-3.53-0.52-5.24l1.15,0.86C52.99,91.67,53.25,94.06,53.44,94.97
			L53.44,94.97z M44.33,99.43c-0.01-0.1-0.04-0.2-0.08-0.3c0.21-0.42,0.46-0.92,0.47-1.39l1.74,0.31
			C45.61,98.28,44.88,98.78,44.33,99.43L44.33,99.43z M49.97,96.74c-0.06,0.06-0.11,0.13-0.16,0.2c-0.07-0.05-0.15-0.11-0.22-0.16
			c0.25-0.37-0.17-3.11-0.28-3.7C49.88,93.87,50.17,94.57,49.97,96.74z M45.13,95.61c0.36-0.52,0.43-1.11,0.52-1.73
			c0.37-0.5,0.51-1.11,0.62-1.71c0.04-0.04,0.07-0.09,0.1-0.13c0.84,1.26,1.02,2.76,0.75,3.9c-0.64-0.07-1.35-0.07-2,0.06
			L45.13,95.61L45.13,95.61z M349.55,96.63c0.77-0.57,1.54-1.17,2.35-1.67c-1.33,2.03-1.21,4.18-1.2,6.54
			c0.71-1.91,1.28-3.38,2.68-4.67c-0.14,1.32,0.31,2.04,0.97,3.09c0.64-1.7,0.98-3.57,2.33-4.83c-0.08,0.25-0.09,0.53-0.13,0.79
			c-0.44,0.25-0.66,0.95-0.58,1.48c-0.5,0.26-0.54,0.91-0.46,1.46c-0.46,0.28-0.53,1.07-0.4,1.54c-0.53,0.28-0.47,0.98-0.36,1.53
			c-0.44,0.28-0.43,0.97-0.32,1.55c-0.52,0.32-0.31,1.23-0.23,1.56c-0.43,0.32-0.39,0.99-0.25,1.55l-0.18,1.58l-0.13,1.56l-0.1,1.56
			c-0.3,0.53-0.27,1.04-0.05,1.59c-0.25,0.24-0.28,0.59-0.21,0.95l-0.67,0.32c-1.83-0.79-3.06-2.59-3.06-4.68L349.55,96.63
			L349.55,96.63z M365.93,115.76c0.21-0.43,0.33-0.91,0.05-1.25c0.26-0.44,0.43-0.99,0.17-1.41c0.25-0.42,0.4-0.96,0.22-1.41
			c0.36-0.67,0.2-0.8,0.24-1.43c0.22-0.44,0.46-0.93,0.32-1.38l0.78-2.78c0.21-0.36,0.34-0.74,0.47-1.11
			c1.23,2.58,0.8,4.18-0.27,7.05c1.65-1.03,2.55-1.68,2.98-3.93c-0.01,0.86,0.37,1.69,0.66,2.49c0.54-1.37,1.13-2.75,1.21-4.23
			l0.65,0.4l-0.7-3.04c0.65,0.5,0.96,3.33,1.16,4.24l1.14-1.66l0.07,0.12c-0.19,0.45-0.04,1,0.23,1.43
			c-0.26,0.42-0.09,0.98,0.18,1.43c-0.32,0.38-0.13,0.95,0.14,1.43c-0.39,0.37-0.15,1.02,0.13,1.48c-0.48,0.39-0.2,1.02,0.05,1.45
			c-0.49,0.34-0.18,1.12,0.07,1.52c-0.51,0.28-0.28,0.99,0.02,1.49c-0.23,0.11-0.35,0.31-0.34,0.61
			C372.35,116.78,369.14,116.27,365.93,115.76L365.93,115.76z M360.12,101.92l-0.83,1.09l0.81-0.43c-1.04,1.03-1.37,2.59-1.27,3.41
			l2.42-1.73c-1.3,2.01-1.17,4.14-1.17,6.46c0.76-1.35,1.37-4.07,2.64-4.62c-0.12,1.31,0.32,2,0.97,3.04
			c-0.12-2.7,0.97-3.53,2.31-4.78c-0.12,0.24-0.19,0.5-0.2,0.78c-0.52,0.26-0.48,1.08-0.48,1.43c-0.49,0.23-0.58,0.88-0.5,1.46
			c-0.45,0.28-0.52,1.05-0.4,1.52c-0.52,0.27-0.47,0.96-0.36,1.51c-0.43,0.28-0.42,0.94-0.32,1.51c-0.49,0.6-0.32,1.08-0.22,1.56
			c-0.35,0.26-0.39,0.74-0.31,1.21l-6.93-1.1c0.28-0.51,0.54-1.23-0.01-1.5c0.29-0.5,0.53-1.21,0.02-1.5
			c0.26-0.43,0.54-1.19,0.05-1.52c0.26-0.43,0.57-1.05,0.05-1.46c0.25-0.41,0.58-0.99,0.13-1.45c0.26-0.47,0.46-1.05,0.14-1.44
			c0.26-0.45,0.43-1.01,0.17-1.43c0.26-0.43,0.41-0.98,0.22-1.43c0.42-0.81,0.2-0.74,0.24-1.45c0.22-0.45,0.47-0.94,0.33-1.4
			l0.8-2.82c0.22-0.37,0.35-0.76,0.49-1.15c1.02,2.81,0.73,4.88-0.26,7.16L360.12,101.92L360.12,101.92z M368.86,98.05
			c-0.07,0.21-0.14,0.42-0.2,0.64c-0.09-0.1-0.19-0.19-0.29-0.27L368.86,98.05z M373.72,100.97c-0.25-0.21-0.52-0.39-0.82-0.54
			l0.21-0.66c0.04,0,0.08,0,0.12-0.01C373.23,99.76,373.72,100.97,373.72,100.97z M361.87,100.04c-0.31,0.21-0.59,0.44-0.82,0.69
			c0.3-0.58,0.52-1.24,0.64-1.92C361.69,98.8,361.87,100.04,361.87,100.04z M363.34,98.65l1.45,0.36c-0.55,0.06-1.13,0.19-1.66,0.4
			C363.21,99.16,363.28,98.9,363.34,98.65L363.34,98.65z M364.37,97.06c-0.28,0.01-0.55,0.04-0.8,0.11
			c0.06-1.01-0.07-2.01-0.42-3.01c0.72,0.55,0.72,0.62,0.94,1.51L364.37,97.06L364.37,97.06z M366.1,94.3l2.89,0.46
			c-1.26,0.33-2.29,1.26-2.85,2.52c-0.11-0.03-0.23-0.06-0.35-0.09C366.24,96.31,366.32,95.28,366.1,94.3L366.1,94.3z"/>
		<path class="st1" d="M78.51,152.48v-22.19h6.04v18.42h6.22v3.77H78.51L78.51,152.48z M107.79,148.08
			c0.19-0.34,0.28-0.83,0.28-1.45v-10.85c0-0.48-0.09-0.87-0.26-1.18c-0.18-0.3-0.53-0.45-1.07-0.45c-1.01,0-1.51,0.56-1.51,1.68
			v10.82c0,0.64,0.11,1.12,0.32,1.45c0.21,0.33,0.6,0.49,1.16,0.49C107.24,148.6,107.6,148.43,107.79,148.08L107.79,148.08z
			 M101.14,151.04c-1.26-1.09-1.9-2.63-1.9-4.61v-10.56c0-1.91,0.63-3.35,1.9-4.33c1.26-0.97,3.12-1.46,5.55-1.46
			c2.44,0,4.29,0.49,5.55,1.46c1.26,0.97,1.9,2.42,1.9,4.33v10.56c0,2-0.63,3.54-1.9,4.62c-1.26,1.09-3.12,1.63-5.55,1.63
			C104.26,152.68,102.41,152.14,101.14,151.04L101.14,151.04z M124.83,151.18c-1.22-1-1.83-2.61-1.83-4.83v-2.17h5.94v2.76
			c0,1.1,0.48,1.65,1.44,1.65c0.54,0,0.91-0.12,1.12-0.35c0.21-0.23,0.32-0.62,0.32-1.18c0-0.72-0.12-1.32-0.35-1.79
			c-0.23-0.47-0.53-0.87-0.9-1.19c-0.36-0.32-1.01-0.81-1.95-1.49l-2.6-1.91c-2.02-1.45-3.02-3.05-3.02-4.8
			c0-1.89,0.59-3.34,1.77-4.33c1.18-0.99,2.91-1.49,5.18-1.49c2.72,0,4.67,0.53,5.87,1.59c1.19,1.06,1.79,2.72,1.79,4.97h-6.15
			l-0.04-1.52c0-0.29-0.11-0.52-0.33-0.7c-0.22-0.17-0.53-0.26-0.93-0.26c-0.47,0-0.82,0.09-1.05,0.28
			c-0.23,0.19-0.35,0.45-0.35,0.77c0,0.72,0.56,1.47,1.69,2.25l3.51,2.48c0.82,0.59,1.5,1.14,2.04,1.67
			c0.54,0.53,0.97,1.15,1.3,1.86c0.33,0.71,0.49,1.56,0.49,2.54c0,2.19-0.54,3.85-1.63,4.97c-1.09,1.13-2.89,1.69-5.39,1.69
			C128.02,152.68,126.05,152.18,124.83,151.18L124.83,151.18z M167.94,145.35h2.74l-1.34-11.29h-0.28L167.94,145.35z M161.27,152.48
			l2.92-22.19h10.23l2.88,22.19h-5.73l-0.42-3.59h-3.65l-0.35,3.59H161.27L161.27,152.48z M186.15,152.48v-22.19h6.22l2.78,10.62
			v-10.62h5.83v22.19h-5.9l-3.02-11.11v11.11H186.15L186.15,152.48z M212.03,150.99c-1.07-1.13-1.6-2.84-1.6-5.13v-9.56
			c0-2.05,0.62-3.6,1.86-4.65c1.24-1.05,3.09-1.58,5.55-1.58c1.99,0,3.54,0.29,4.64,0.88c1.1,0.59,1.86,1.44,2.28,2.56
			c0.42,1.12,0.63,3.45,0.63,5.21h-5.9l0-2.89c0-0.53-0.1-0.95-0.3-1.24c-0.2-0.29-0.56-0.44-1.07-0.44c-1.15,0-1.72,0.55-1.72,1.65
			v10.75c0,0.67,0.12,1.18,0.35,1.52c0.23,0.34,0.64,0.52,1.23,0.52s1-0.17,1.23-0.52c0.23-0.34,0.35-0.85,0.35-1.52v-1.39h-1.62
			v-3.82h7.38v11.13h-2.43l-1.02-1.86c-1.08,1.38-2.74,2.07-4.99,2.07C214.71,152.68,213.09,152.12,212.03,150.99L212.03,150.99z
			 M234.74,152.48v-22.19h12.09v4.29h-5.94v4.31h5.69v4.19h-5.69v5.09h6.33v4.31L234.74,152.48L234.74,152.48z M256.25,152.48
			v-22.19h6.04v18.42h6.22v3.77H256.25L256.25,152.48z M277.22,152.48v-22.19h12.09v4.29h-5.94v4.31h5.69v4.19h-5.69v5.09h6.32v4.31
			L277.22,152.48L277.22,152.48z M299.96,151.18c-1.22-1-1.83-2.61-1.83-4.83v-2.17h5.94v2.76c0,1.1,0.48,1.65,1.44,1.65
			c0.54,0,0.91-0.12,1.12-0.35c0.21-0.23,0.32-0.62,0.32-1.18c0-0.72-0.12-1.32-0.35-1.79c-0.23-0.47-0.53-0.87-0.9-1.19
			c-0.36-0.32-1.01-0.81-1.95-1.49l-2.6-1.91c-2.02-1.45-3.02-3.05-3.02-4.8c0-1.89,0.59-3.34,1.77-4.33
			c1.18-0.99,2.91-1.49,5.18-1.49c2.72,0,4.67,0.53,5.87,1.59c1.2,1.06,1.79,2.72,1.79,4.97h-6.15l-0.04-1.52
			c0-0.29-0.11-0.52-0.33-0.7c-0.22-0.17-0.53-0.26-0.93-0.26c-0.47,0-0.82,0.09-1.05,0.28c-0.23,0.19-0.35,0.45-0.35,0.77
			c0,0.72,0.56,1.47,1.69,2.25l3.51,2.48c0.82,0.59,1.5,1.14,2.04,1.67c0.54,0.53,0.97,1.15,1.3,1.86c0.33,0.71,0.49,1.56,0.49,2.54
			c0,2.19-0.54,3.85-1.63,4.97c-1.09,1.13-2.89,1.69-5.39,1.69C303.16,152.68,301.18,152.18,299.96,151.18L299.96,151.18z"/>
	</g>
</g>
</svg>
